<svg xmlns="http://www.w3.org/2000/svg" xmlns:xlink="http://www.w3.org/1999/xlink" width="53.281" height="41.275" viewBox="0 0 53.281 41.275">
  <defs>
    <linearGradient id="linear-gradient" x1="0.89" x2="0.225" y2="1" gradientUnits="objectBoundingBox">
      <stop offset="0" stop-color="#e6007e"/>
      <stop offset="1" stop-color="#e8472c"/>
    </linearGradient>
  </defs>
  <g id="m7aFXu.tif_1_" transform="translate(0.1 0)">
    <g id="EfAdjy.tif_1_" transform="translate(-0.1 0)">
      <g id="Group_33179" data-name="Group 33179" transform="translate(0 0)">
        <path id="Path_35375" data-name="Path 35375" d="M17.165,37.709H20.7V21.217c0-1.872.475-2.348,2.348-2.348H30.3c1.664,0,2.2.535,2.229,2.2V37.65h3.536V2.585C36.064.386,36.45,0,38.62,0h6.953c1.842,0,2.318.505,2.318,2.377V37.739h3.3c1.218-.03,2.021.505,1.991,1.783-.03,1.307-.832,1.753-2.05,1.753H2.248C.7,41.275-.1,40.651-.1,39.492s.8-1.724,2.377-1.753H5.308V30.7c0-2.764.208-2.972,3.061-2.972h6.656c1.545,0,2.11.565,2.11,2.14C17.195,32.45,17.165,35.005,17.165,37.709Zm27.1,0V3.655H39.719V37.709ZM28.932,22.554H24.326V37.709h4.606ZM13.569,31.38H8.963v6.3h4.606Z" transform="translate(0.1 0)" fill="url(#linear-gradient)"/>
        <path id="Path_35376" data-name="Path 35376" d="M17.393,3.536c-.832,0-1.664.03-2.466,0a1.632,1.632,0,0,1-1.753-1.783A1.609,1.609,0,0,1,14.926,0c2.437,0,4.844,0,7.251.03A1.624,1.624,0,0,1,23.9,1.813c.03,2.348.03,4.725,0,7.072a1.587,1.587,0,0,1-1.753,1.724,1.587,1.587,0,0,1-1.753-1.724c-.03-.773,0-1.575,0-2.7-.565.535-.921.862-1.278,1.189Q11.539,14.858,4.05,22.376a10.99,10.99,0,0,1-.832.832,1.67,1.67,0,0,1-2.407-.089,1.676,1.676,0,0,1-.059-2.5,7.332,7.332,0,0,1,.832-.832Q9.028,12.3,16.5,4.873a6.731,6.731,0,0,1,1.189-.862A4.161,4.161,0,0,1,17.393,3.536Z" transform="translate(-0.128 0)" fill="url(#linear-gradient)"/>
      </g>
    </g>
  </g>
</svg>
