<svg xmlns="http://www.w3.org/2000/svg" xmlns:xlink="http://www.w3.org/1999/xlink" width="51.529" height="51.523" viewBox="0 0 51.529 51.523">
  <defs>
    <linearGradient id="linear-gradient" x1="1" y1="0.057" x2="0.116" y2="0.854" gradientUnits="objectBoundingBox">
      <stop offset="0" stop-color="#e6007e"/>
      <stop offset="1" stop-color="#da402f"/>
    </linearGradient>
  </defs>
  <g id="_x31_S0ZJZ.tif_1_" transform="translate(0.009 0.019)">
    <g id="Group_33177" data-name="Group 33177" transform="translate(-0.009 -0.019)">
      <path id="Path_35370" data-name="Path 35370" d="M28.356,51.47a16.512,16.512,0,0,1-.962-2.057C26.333,46.03,25.4,42.58,24.309,39.2a7.066,7.066,0,0,0-1.559-2.621c-2.587-2.687-5.241-5.341-7.928-7.928a6.444,6.444,0,0,0-2.455-1.493C8.884,26.027,5.335,25.032,1.819,24-.271,23.374-.5,22.577.79,20.853c2.82-3.715,5.971-7.165,10.814-8.028,2.886-.5,5.871-.3,8.824-.464a3.06,3.06,0,0,0,1.725-.564A44.075,44.075,0,0,1,46.767.253c5.142-.663,5.042-.431,4.511,4.412A42.528,42.528,0,0,1,39.9,29.146a3.566,3.566,0,0,0-.7,2.156c-.2,2.82-.033,5.706-.5,8.492-.7,4.279-3.583,7.3-6.833,9.952-.73.564-1.426,1.161-2.156,1.758C29.219,51.47,28.788,51.47,28.356,51.47ZM46.833,11.763A10.1,10.1,0,0,0,46.4,10.6a10.293,10.293,0,0,0-5.175-5.274,4.329,4.329,0,0,0-2.886-.166A39.877,39.877,0,0,0,32.5,7.716C25.371,11.6,19.732,16.938,16.614,24.6a1.935,1.935,0,0,0,.5,2.554,83.036,83.036,0,0,1,6.6,6.634c1.261,1.426,2.322,1.493,3.914.73,9.62-4.611,15.458-12.473,19.074-22.225C46.734,12.161,46.767,12,46.833,11.763Zm-28.1,3.251c-6.236-.63-11.312,1.261-14.961,6.767,3.317,1,6.568,1.957,9.52,2.82C15.22,21.251,16.945,18.2,18.737,15.014ZM29.683,47.622c5.274-3.284,8.094-9.786,6.634-14.861-3.085,1.758-6.2,3.516-9.487,5.407C27.726,41.154,28.688,44.372,29.683,47.622ZM48.127,7.285c.133-1.393.265-2.82.431-4.478-1.692.232-3.019.431-4.312.63C45.606,4.8,46.833,5.991,48.127,7.285Z" transform="translate(0.009 0.019)" fill="url(#linear-gradient)"/>
      <path id="Path_35371" data-name="Path 35371" d="M17.454,104.5c-2.024-1.194-2.123-1.692-.663-3.384,1.062-1.261,2.123-2.521,3.284-3.682a5.951,5.951,0,1,1,7.961,8.791c-1.36,1.095-2.786,2.123-4.213,3.151-1.526,1.128-2.189.9-2.886-1-1.327.663-2.621,1.393-3.981,1.924a5.563,5.563,0,0,1-2.09-.033,5.2,5.2,0,0,1,.166-2.057C15.762,106.919,16.658,105.725,17.454,104.5Zm6.5,1.426a34.944,34.944,0,0,0,2.82-2.256,3.046,3.046,0,0,0,.033-4.412,3.082,3.082,0,0,0-4.412-.265,38.387,38.387,0,0,0-2.687,2.919c2.289.929,1.261,2.223.4,3.649C21.6,105.161,22.994,103.8,23.956,105.924Z" transform="translate(-9.921 -63.822)" fill="url(#linear-gradient)"/>
      <path id="Path_35372" data-name="Path 35372" d="M97.57,28.1A5.938,5.938,0,1,1,91.6,33.971,5.763,5.763,0,0,1,97.57,28.1Zm3.185,5.871A3.284,3.284,0,0,0,94.187,34a3.284,3.284,0,1,0,6.568-.033Z" transform="translate(-61.211 -18.772)" fill="url(#linear-gradient)"/>
    </g>
  </g>
</svg>
